<svg width="764" height="97" viewBox="0 0 764 97" fill="none" xmlns="http://www.w3.org/2000/svg">
<path d="M80.6618 15.939C80.9636 2.65004 86.1897 0.0594106 86.1897 0.0594106C86.1897 0.0594106 74.8481 -0.324386 72.3542 0.858986C60.7902 5.11273 58.9635 18.1938 58.9476 26.6213C58.9635 25.374 58.8523 1.78649 33.6435 0.139368C32.8811 0.0913936 0 0.0594106 0 0.0594106C0 0.0594106 5.27368 2.65004 5.54371 15.939V56.0617C6.36971 47.1064 10.3567 36.4561 19.9669 24.2226C28.1792 34.681 32.2933 43.9881 33.8182 52.0638C39.6638 47.1704 47.7331 43.0126 58.8682 40.5499C58.8682 40.5499 60.139 55.8698 53.8646 69.9743C60.9491 68.1353 69.3679 67.7835 79.2799 69.9583C80.0265 67.3037 80.5189 64.5212 80.6777 61.6427L80.6618 15.939Z" fill="#229E82"/>
<path d="M18.9345 88.3481C18.6169 80.3044 19.6811 63.9451 33.8184 52.0634C32.2776 43.9877 28.1794 34.6806 19.967 24.2222C10.3569 36.4557 6.36985 47.106 5.54386 56.0613C5.54386 56.0613 3.1294 75.2511 18.9345 88.3481Z" fill="#F78F35"/>
<path d="M58.8681 40.5496C47.7331 43.0282 39.6637 47.17 33.8182 52.0634C19.665 63.9451 18.6008 80.3045 18.9343 88.3482C19.3315 88.748 24.8593 92.3781 24.8593 92.3781C29.2117 85.2618 38.2976 74.0198 53.8645 69.9739C60.1548 55.8694 58.8681 40.5496 58.8681 40.5496Z" fill="#FCB53E"/>
<path d="M53.8646 69.9738C38.2977 74.0196 29.1959 85.2617 24.8594 92.3779C24.8753 92.3779 24.907 92.3939 24.9229 92.4099C34.1201 97.5591 43.7461 96.8875 43.7461 96.8875C60.6155 96.8715 74.8322 85.5015 79.2799 69.9578C69.3679 67.7669 60.9491 68.1348 53.8646 69.9738Z" fill="#FFCA43"/>
<path d="M242.017 30.1067V29.1152H233.567V30.1067C235.155 30.5385 235.663 31.434 235.663 32.4735C235.663 33.8327 235.107 35.24 234.488 36.8711L229.437 50.24L221.478 31.0502C220.97 29.9148 219.795 29.1152 218.429 29.1152H211.026V30.0907C213.393 30.3626 214.505 31.9937 215.839 35.288L226.53 61.1942H227.705L237.982 35.288C239.126 32.3935 240.159 30.6184 242.017 30.1067Z" fill="#F78F35"/>
<path d="M270.244 58.1718C269.704 57.3562 268.544 54.6537 268.544 54.6537L258.172 29.1152H253.819L243.717 55.0695C242.621 57.884 241.604 59.659 239.873 60.2187V61.1942H247.195V60.2187C245.75 59.8989 245.432 59.3072 245.432 58.4117C245.432 57.2763 245.925 56.2049 246.369 55.0695L248.323 50.272H259.617L263.286 59.2432C263.826 60.4266 265.018 61.1302 266.384 61.2102H273.5V60.2347C272.102 60.0908 271.102 59.4831 270.244 58.1718ZM249.356 47.4095L253.756 35.9116L258.458 47.4095H249.356Z" fill="#F78F35"/>
<path d="M205.133 55.8211C205.133 51.6473 205.149 32.5854 205.133 32.5214C205.022 30.6184 203.386 29.1152 201.4 29.1152H201.384H194.856V30.0907C197.223 30.5385 197.651 32.1216 197.651 35.224V55.6611C197.572 58.3477 197 59.787 194.808 60.2027V61.1782H207.992V60.2027C205.816 59.8029 205.244 58.4117 205.133 55.8211Z" fill="#F78F35"/>
<path d="M127.219 30.0907C129.57 30.5385 130.015 32.1216 130.015 35.224V53.1345C127.219 56.2049 124.154 57.7081 121.04 57.7081C116.751 57.7081 115.179 55.2933 115.179 50.0801V44.2752C115.179 38.3743 115.179 32.5534 115.179 32.5214C115.068 30.6184 113.432 29.1152 111.446 29.1152H111.43H105.156V30.0907C107.523 30.5385 107.951 32.1216 107.951 35.224V48.0332V50.4959C107.951 57.6921 111.351 61.1942 118.372 61.1942C122.835 61.1942 126.616 59.691 130.031 56.5087V57.9C130.142 59.739 131.715 61.1942 133.637 61.1942H139.959V60.2187C137.799 59.8029 137.306 58.4277 137.258 55.7091V35.224C137.258 32.1056 137.687 30.5385 140.038 30.0907V29.1152H127.219V30.0907Z" fill="#F78F35"/>
<path d="M307.811 55.0855V42.2762V39.8136C307.811 32.6174 304.412 29.1152 297.391 29.1152C292.927 29.1152 289.147 30.6184 285.731 33.8007V32.4095C285.62 30.5705 284.048 29.1152 282.126 29.1152H275.804V30.0907C277.964 30.5065 278.456 31.8818 278.504 34.6003V55.0855C278.504 58.2038 278.075 59.771 275.724 60.2187V61.1942H288.543V60.2187C286.192 59.771 285.747 58.1878 285.747 55.0855V37.175C288.543 34.1046 291.609 32.6014 294.722 32.6014C299.011 32.6014 300.583 35.0161 300.583 40.2293V46.0343C300.583 51.9351 300.583 57.756 300.583 57.788C300.695 59.691 302.331 61.1942 304.316 61.1942H304.332H310.607V60.2187C308.24 59.771 307.811 58.1878 307.811 55.0855Z" fill="#F78F35"/>
<path d="M172.999 29.1152H170.251V30.1067H173.03C175.35 30.5705 175.778 32.1376 175.778 35.24V62.6974C175.715 64.0087 175.238 65.2241 174.476 66.2155C174.476 66.2315 174.46 66.2315 174.46 66.2475C174.365 66.3595 174.269 66.4874 174.174 66.5993L174.158 66.6153C173.745 67.0631 173.284 67.4629 172.76 67.7987C172.729 67.8147 172.713 67.8307 172.681 67.8467C172.649 67.8627 172.601 67.8947 172.57 67.9106C171.807 68.3424 170.934 68.6143 169.981 68.6782C169.583 68.6942 169.266 68.7102 168.932 68.6782V69.6377C169.647 69.7017 170.409 69.7337 171.299 69.7017C173.014 69.6537 174.317 69.4298 175.524 69.0141C175.604 68.9821 175.699 68.9661 175.778 68.9341C179.94 67.4469 182.895 63.6409 183.022 59.1473V35.24C183.022 32.1376 183.467 30.5705 185.77 30.1067H188.55V29.1152H185.817H172.999Z" fill="#F78F35"/>
<path d="M149.617 29.1152H146.869V30.1067H149.649C151.968 30.5705 152.397 32.1376 152.397 35.24V62.6974C152.333 64.0087 151.856 65.2241 151.094 66.2155C151.094 66.2315 151.078 66.2315 151.078 66.2475C150.983 66.3595 150.888 66.4874 150.792 66.5993L150.776 66.6153C150.363 67.0631 149.903 67.4629 149.378 67.7987C149.347 67.8147 149.331 67.8307 149.299 67.8467C149.267 67.8627 149.22 67.8947 149.188 67.9106C148.425 68.3424 147.552 68.6143 146.599 68.6782C146.202 68.6942 145.884 68.7102 145.55 68.6782V69.6377C146.265 69.7017 147.028 69.7337 147.917 69.7017C149.633 69.6537 150.935 69.4298 152.142 69.0141C152.222 68.9821 152.317 68.9661 152.397 68.9341C156.558 67.4469 159.513 63.6409 159.64 59.1473V35.24C159.64 32.1376 160.085 30.5705 162.388 30.1067H165.168V29.1152H162.436H149.617Z" fill="#F78F35"/>
<path d="M330.431 58.0115C335.085 58.0115 337.404 56.4124 337.404 53.1981C337.404 52.2066 337.198 51.3751 336.785 50.6714C336.372 49.9838 335.816 49.3761 335.101 48.8644C334.402 48.3527 333.592 47.9209 332.687 47.5531C331.781 47.1853 330.828 46.8175 329.811 46.4497C328.652 46.0499 327.54 45.6021 326.507 45.0904C325.459 44.5787 324.57 43.987 323.791 43.2834C323.029 42.5957 322.425 41.7642 321.98 40.8047C321.536 39.8452 321.313 38.6938 321.313 37.3345C321.313 34.536 322.266 32.3452 324.157 30.762C326.047 29.1948 328.668 28.3953 332.004 28.3953C333.926 28.3953 335.689 28.6032 337.261 29.0189C338.834 29.4347 339.993 29.8825 340.724 30.3782L339.31 34.0243C338.675 33.6245 337.706 33.2247 336.435 32.8409C335.165 32.4571 333.687 32.2652 332.004 32.2652C331.146 32.2652 330.352 32.3612 329.621 32.5371C328.89 32.729 328.239 33.0008 327.699 33.3686C327.143 33.7364 326.714 34.2162 326.396 34.7759C326.079 35.3516 325.92 36.0232 325.92 36.7908C325.92 37.6544 326.094 38.374 326.428 38.9657C326.762 39.5573 327.238 40.0691 327.858 40.5168C328.477 40.9646 329.176 41.3644 329.986 41.7482C330.796 42.116 331.686 42.4838 332.671 42.8516C334.053 43.4113 335.307 43.955 336.467 44.5147C337.611 45.0744 338.611 45.7301 339.453 46.4977C340.295 47.2652 340.947 48.1768 341.407 49.2482C341.868 50.3036 342.09 51.5989 342.09 53.1022C342.09 55.9007 341.074 58.0595 339.04 59.5787C337.007 61.0979 334.132 61.8495 330.431 61.8495C329.176 61.8495 328.016 61.7696 326.968 61.5936C325.92 61.4177 324.967 61.2258 324.141 61.002C323.315 60.7781 322.6 60.5222 322.012 60.2663C321.408 60.0105 320.948 59.7866 320.614 59.5947L321.949 55.9007C322.647 56.3005 323.728 56.7482 325.157 57.244C326.587 57.7557 328.35 58.0115 330.431 58.0115Z" fill="#229E82"/>
<path d="M359.913 56.7482C359.611 56.0126 359.198 55.0691 358.69 53.9337C358.182 52.7983 357.641 51.567 357.054 50.2397C356.466 48.9124 355.846 47.5531 355.195 46.1458C354.528 44.7386 353.909 43.4273 353.337 42.1639C352.749 40.9166 352.209 39.7972 351.701 38.8057C351.192 37.8143 350.795 37.0627 350.477 36.5349C350.144 40.165 349.874 44.1149 349.651 48.3527C349.445 52.5904 349.254 56.8601 349.111 61.1779H344.743C344.87 58.4113 344.997 55.6128 345.156 52.7823C345.315 49.9678 345.49 47.1853 345.68 44.4667C345.871 41.7322 346.093 39.0776 346.316 36.487C346.538 33.8963 346.792 31.4496 347.062 29.1309H350.97C351.796 30.4901 352.685 32.0893 353.639 33.9443C354.592 35.7993 355.545 37.7343 356.482 39.7492C357.435 41.7642 358.356 43.7791 359.246 45.81C360.135 47.8249 360.945 49.664 361.676 51.3271C362.407 49.664 363.217 47.8249 364.106 45.81C364.996 43.7951 365.917 41.7801 366.854 39.7492C367.808 37.7343 368.745 35.7993 369.698 33.9443C370.651 32.0893 371.54 30.4901 372.366 29.1309H376.274C377.322 39.4614 378.101 50.1277 378.625 61.1619H374.257C374.098 56.8442 373.907 52.5744 373.701 48.3367C373.478 44.0989 373.208 40.165 372.875 36.5349C372.573 37.0627 372.16 37.8143 371.652 38.8057C371.143 39.7972 370.603 40.9166 370.031 42.1639C369.444 43.4113 368.824 44.7386 368.173 46.1458C367.522 47.5531 366.902 48.9124 366.314 50.2397C365.727 51.567 365.187 52.7983 364.694 53.9337C364.186 55.0691 363.789 56.0126 363.471 56.7482H359.913Z" fill="#229E82"/>
<path d="M405.041 61.1619C404.517 59.7706 404.024 58.4113 403.564 57.068C403.103 55.7247 402.627 54.3655 402.134 52.9742H387.711L384.82 61.1619H380.182C381.405 57.7717 382.548 54.6373 383.613 51.7589C384.677 48.8804 385.725 46.1458 386.758 43.5552C387.774 40.9646 388.791 38.4859 389.808 36.1351C390.824 33.7844 391.873 31.4496 392.969 29.1309H397.051C398.147 31.4336 399.211 33.7684 400.228 36.1351C401.245 38.4859 402.261 40.9646 403.278 43.5552C404.31 46.1458 405.359 48.8804 406.423 51.7589C407.503 54.6373 408.647 57.7717 409.87 61.1619H405.041ZM400.863 49.2802C399.879 46.5936 398.91 44.003 397.941 41.4923C396.972 38.9816 395.971 36.5669 394.923 34.2641C393.858 36.5829 392.842 38.9816 391.873 41.4923C390.904 44.003 389.951 46.5936 389.013 49.2802H400.863Z" fill="#229E82"/>
<path d="M431.536 57.2599V61.1459L412.395 61.1619L412.379 29.1309H416.827L416.843 57.2759L431.536 57.2599Z" fill="#229E82"/>
<path d="M453.521 57.2438V61.1298L434.38 61.1457L434.364 29.1147H438.811L438.827 57.2598L453.521 57.2438Z" fill="#229E82"/>
<path d="M465.148 61.1298L465.132 29.0988L484.321 29.0828V32.9207H469.58V42.5796H482.669V46.3696H469.58V61.1138L465.148 61.1298Z" fill="#229E82"/>
<path d="M487.942 29.0828H492.39L492.406 61.1138H487.958L487.942 29.0828Z" fill="#229E82"/>
<path d="M520.283 61.0979C519.616 59.9625 518.838 58.6832 517.964 57.2599C517.091 55.8367 516.153 54.3655 515.137 52.8463C514.12 51.3271 513.072 49.7759 511.992 48.2087C510.912 46.6416 509.831 45.1224 508.751 43.6512C507.671 42.1959 506.639 40.8047 505.622 39.5094C504.605 38.214 503.684 37.0786 502.826 36.0872L502.842 61.0979H498.474L498.458 29.0669H502C503.446 30.6021 504.971 32.4091 506.623 34.456C508.259 36.5029 509.879 38.6138 511.499 40.7887C513.104 42.9635 514.628 45.0904 516.042 47.1853C517.472 49.2802 518.663 51.1512 519.648 52.7823L519.632 29.0669H524L524.016 61.0979H520.283Z" fill="#229E82"/>
<path d="M551.322 61.0818C550.798 59.6905 550.305 58.3312 549.844 56.988C549.384 55.6447 548.907 54.2854 548.415 52.8941H533.992L531.101 61.0818H526.462C527.686 57.6916 528.829 54.5572 529.893 51.6788C530.958 48.8003 532.006 46.0658 533.039 43.4751C534.055 40.8845 535.072 38.4058 536.088 36.0551C537.105 33.7043 538.153 31.3696 539.249 29.0508H543.332C544.428 31.3536 545.492 33.6883 546.509 36.0551C547.525 38.4058 548.542 40.8845 549.559 43.4751C550.591 46.0658 551.639 48.8003 552.704 51.6788C553.784 54.5572 554.928 57.6916 556.151 61.0818H551.322ZM547.144 49.2001C546.159 46.5135 545.19 43.9229 544.221 41.4122C543.252 38.9016 542.252 36.4868 541.203 34.1841C540.139 36.5028 539.122 38.9016 538.153 41.4122C537.184 43.9229 536.231 46.5135 535.294 49.2001H547.144Z" fill="#229E82"/>
<path d="M580.47 61.0659C579.803 59.9305 579.024 58.6512 578.151 57.2279C577.277 55.8047 576.34 54.3335 575.323 52.8143C574.307 51.2951 573.258 49.7439 572.178 48.1768C571.098 46.6096 570.018 45.0904 568.938 43.6192C567.858 42.1639 566.825 40.7727 565.808 39.4774C564.792 38.1821 563.871 37.0467 563.013 36.0552L563.029 61.0659H558.66L558.645 29.0349H562.187C563.632 30.5701 565.157 32.3771 566.809 34.4241C568.445 36.471 570.066 38.5818 571.686 40.7567C573.29 42.9315 574.815 45.0584 576.229 47.1533C577.658 49.2482 578.85 51.1192 579.835 52.7503L579.819 29.0349H584.187L584.203 61.0659H580.47Z" fill="#229E82"/>
<path d="M603.932 61.7534C601.692 61.7534 599.659 61.3856 597.832 60.65C595.989 59.9144 594.417 58.827 593.098 57.4197C591.78 55.9965 590.763 54.2534 590.048 52.1745C589.334 50.0956 588.968 47.7129 588.968 45.0263C588.968 42.3397 589.365 39.957 590.175 37.8781C590.986 35.7992 592.082 34.0561 593.464 32.6329C594.846 31.2097 596.45 30.1382 598.277 29.4026C600.119 28.667 602.073 28.2992 604.154 28.2832C605.472 28.2832 606.664 28.3792 607.712 28.5551C608.76 28.747 609.682 28.9548 610.46 29.1947C611.238 29.4346 611.874 29.6905 612.366 29.9303C612.859 30.1702 613.192 30.3621 613.383 30.49L612.096 34.1841C611.826 33.9922 611.429 33.8003 610.905 33.5764C610.381 33.3685 609.793 33.1446 609.142 32.9367C608.49 32.7288 607.76 32.5369 606.981 32.409C606.203 32.2651 605.409 32.2011 604.615 32.2011C602.931 32.2011 601.422 32.489 600.072 33.0807C598.721 33.6723 597.578 34.5199 596.625 35.6233C595.672 36.7267 594.957 38.086 594.448 39.6692C593.94 41.2523 593.686 43.0434 593.686 45.0103C593.686 46.9293 593.908 48.6564 594.353 50.2396C594.798 51.8067 595.465 53.166 596.355 54.2854C597.244 55.4048 598.356 56.2843 599.69 56.892C601.025 57.5157 602.581 57.8195 604.345 57.8195C606.394 57.8195 608.093 57.5956 609.443 57.1639C610.794 56.7321 611.794 56.3483 612.477 56.0125L613.621 59.7065C613.415 59.8664 613.017 60.0583 612.477 60.2822C611.921 60.5061 611.238 60.73 610.412 60.9539C609.586 61.1618 608.617 61.3537 607.521 61.5136C606.41 61.6735 605.218 61.7534 603.932 61.7534Z" fill="#229E82"/>
<path d="M616.877 61.0499L616.861 29.0189L636.288 29.0029V32.8409H621.325V42.3558H634.636V46.0979H621.325V57.196L637.448 57.18V61.0179L616.877 61.0499Z" fill="#229E82"/>
<path d="M658.622 61.3057C657.987 61.3057 657.288 61.2897 656.525 61.2577C655.779 61.2257 655.032 61.1777 654.27 61.1138C653.523 61.0498 652.777 60.9698 652.046 60.8899C651.315 60.7939 650.632 60.682 650.029 60.5221L650.013 29.4666C650.632 29.3067 651.299 29.1947 652.03 29.0988C652.761 29.0028 653.507 28.9229 654.254 28.8589C655 28.7949 655.747 28.747 656.478 28.715C657.208 28.683 657.907 28.667 658.543 28.667C660.385 28.667 662.101 28.8109 663.705 29.0828C665.309 29.3546 666.707 29.8344 667.883 30.49C669.058 31.1457 669.995 32.0252 670.663 33.0966C671.33 34.1681 671.679 35.4954 671.679 37.0785C671.679 38.8376 671.266 40.2768 670.44 41.3962C669.614 42.5156 668.518 43.3632 667.136 43.9229C669.011 44.4826 670.488 45.3461 671.584 46.5615C672.68 47.7609 673.236 49.456 673.236 51.6468C673.236 54.8451 672.06 57.2598 669.725 58.875C667.406 60.4901 663.705 61.3057 658.622 61.3057ZM654.429 42.4996H659.115C660.211 42.4996 661.259 42.4197 662.244 42.2598C663.229 42.0999 664.071 41.828 664.785 41.4282C665.5 41.0284 666.072 40.5007 666.485 39.8611C666.898 39.2214 667.105 38.3898 667.105 37.4143C667.105 36.4868 666.882 35.7192 666.453 35.0796C666.024 34.4559 665.437 33.9442 664.69 33.5604C663.943 33.1766 663.054 32.8888 662.053 32.7128C661.037 32.5209 659.972 32.441 658.845 32.441C657.717 32.441 656.827 32.457 656.176 32.489C655.54 32.5209 654.953 32.5689 654.429 32.6329V42.4996ZM654.429 46.0977V57.3718C654.762 57.4037 655.159 57.4357 655.62 57.4677C656.017 57.4997 656.478 57.5157 657.018 57.5317C657.558 57.5477 658.177 57.5477 658.876 57.5477C660.195 57.5477 661.434 57.4677 662.625 57.2918C663.8 57.1159 664.833 56.828 665.723 56.3963C666.612 55.9645 667.327 55.3568 667.851 54.5892C668.391 53.8216 668.661 52.8462 668.645 51.6788C668.645 50.6393 668.439 49.7438 668.042 49.0242C667.645 48.3046 667.073 47.7289 666.326 47.2971C665.58 46.8653 664.674 46.5615 663.642 46.3696C662.593 46.1777 661.434 46.0977 660.147 46.0977H654.429Z" fill="#229E82"/>
<path d="M698.985 61.0019C698.461 59.6107 697.968 58.2514 697.508 56.9081C697.047 55.5648 696.57 54.2056 696.078 52.8143H681.655L678.764 61.0019H674.125C675.349 57.6117 676.492 54.4774 677.557 51.5989C678.621 48.7205 679.669 45.9859 680.702 43.3953C681.718 40.8047 682.735 38.326 683.752 35.9752C684.768 33.6245 685.817 31.2897 686.913 28.9709H690.995C692.091 31.2737 693.155 33.6085 694.172 35.9752C695.188 38.326 696.205 40.8047 697.222 43.3953C698.254 45.9859 699.303 48.7205 700.367 51.5989C701.447 54.4774 702.591 57.6117 703.814 61.0019H698.985ZM694.791 49.1362C693.806 46.4497 692.838 43.859 691.869 41.3484C690.9 38.8377 689.899 36.423 688.851 34.1202C687.786 36.439 686.77 38.8377 685.801 41.3484C684.832 43.859 683.879 46.4497 682.941 49.1362H694.791Z" fill="#229E82"/>
<path d="M728.133 60.9858C727.466 59.8504 726.687 58.5711 725.814 57.1479C724.94 55.7246 724.003 54.2534 722.986 52.7342C721.97 51.215 720.921 49.6638 719.841 48.0967C718.761 46.5295 717.681 45.0103 716.601 43.5391C715.521 42.0839 714.488 40.6926 713.472 39.3973C712.455 38.102 711.534 36.9666 710.676 35.9751L710.692 60.9858H706.324L706.308 28.9548H709.85C711.295 30.49 712.82 32.2971 714.472 34.344C716.108 36.3909 717.729 38.5018 719.349 40.6766C720.953 42.8515 722.478 44.9783 723.892 47.0732C725.321 49.1681 726.513 51.0391 727.498 52.6702L727.482 28.9548H731.85L731.866 60.9858H728.133Z" fill="#229E82"/>
<path d="M761.443 28.939C760.49 29.9944 759.425 31.1458 758.234 32.4251C757.043 33.7044 755.788 35.0157 754.501 36.359C753.198 37.7023 751.912 39.0136 750.625 40.3089C749.339 41.6042 748.131 42.8036 747.004 43.923C748.322 44.8505 749.72 45.9859 751.181 47.3452C752.658 48.7045 754.088 50.1437 755.502 51.6949C756.916 53.2301 758.234 54.8132 759.473 56.4124C760.712 58.0115 761.744 59.5467 762.57 60.986H757.329C756.407 59.5307 755.359 58.0755 754.152 56.6203C752.96 55.165 751.689 53.7578 750.355 52.4145C749.021 51.0712 747.671 49.8399 746.32 48.6885C744.954 47.5531 743.636 46.5776 742.349 45.778V60.986H737.902L737.886 28.955H742.333V43.0915C743.398 42.068 744.589 40.9326 745.86 39.6533C747.146 38.374 748.417 37.0946 749.672 35.7993C750.927 34.504 752.118 33.2567 753.23 32.0733C754.342 30.8899 755.295 29.8505 756.058 28.955L761.443 28.939Z" fill="#229E82"/>
<path d="M533.753 96.7276C533.34 96.7276 532.896 96.7116 532.419 96.6956C531.943 96.6796 531.466 96.6476 530.989 96.5996C530.513 96.5676 530.036 96.5037 529.576 96.4557C529.115 96.3917 528.686 96.3278 528.289 96.2158V76.4503C528.686 76.3544 529.115 76.2744 529.576 76.2105C530.036 76.1465 530.513 76.0985 530.989 76.0665C531.466 76.0345 531.942 76.0026 532.403 75.9866C532.88 75.9706 533.309 75.9546 533.722 75.9546C534.897 75.9546 535.993 76.0505 537.01 76.2264C538.026 76.4024 538.916 76.7062 539.678 77.122C540.425 77.5377 541.013 78.0975 541.441 78.7851C541.87 79.4727 542.077 80.3203 542.077 81.3117C542.077 82.4312 541.807 83.3427 541.283 84.0623C540.758 84.7819 540.06 85.3096 539.17 85.6614C540.361 86.0133 541.299 86.573 542.013 87.3405C542.712 88.1081 543.062 89.1796 543.062 90.5708C543.062 92.6178 542.315 94.1369 540.822 95.1764C539.345 96.2158 536.978 96.7276 533.753 96.7276ZM531.085 84.7499H534.071C534.77 84.7499 535.437 84.7019 536.057 84.606C536.676 84.51 537.216 84.3341 537.677 84.0783C538.137 83.8224 538.503 83.4866 538.757 83.0708C539.027 82.655 539.154 82.1433 539.154 81.5196C539.154 80.9279 539.011 80.4322 538.741 80.0324C538.471 79.6326 538.09 79.3128 537.613 79.0569C537.137 78.8171 536.581 78.6252 535.93 78.5132C535.294 78.4013 534.611 78.3373 533.88 78.3373C533.15 78.3373 532.594 78.3533 532.181 78.3693C531.768 78.3853 531.402 78.4173 531.069 78.4653V84.7499H531.085ZM531.085 87.0527V94.2329C531.307 94.2489 531.561 94.2809 531.847 94.2969C532.101 94.3128 532.403 94.3288 532.737 94.3448C533.07 94.3608 533.467 94.3608 533.928 94.3608C534.77 94.3608 535.564 94.2969 536.311 94.2009C537.057 94.089 537.724 93.8971 538.28 93.6252C538.852 93.3534 539.297 92.9696 539.647 92.4738C539.98 91.9781 540.155 91.3704 540.155 90.6188C540.155 89.9472 540.028 89.3875 539.774 88.9237C539.519 88.4599 539.154 88.0921 538.678 87.8203C538.201 87.5484 537.629 87.3565 536.962 87.2286C536.295 87.1167 535.564 87.0527 534.738 87.0527H531.085Z" fill="white"/>
<path d="M559.01 96.1039C558.39 96.2638 557.564 96.4237 556.532 96.5997C555.515 96.7756 554.324 96.8715 552.99 96.8715C551.814 96.8715 550.829 96.6956 550.035 96.3598C549.241 96.024 548.59 95.5282 548.113 94.9046C547.621 94.2809 547.271 93.5293 547.065 92.6817C546.858 91.8342 546.747 90.8747 546.747 89.8352V81.2478H549.463V89.2436C549.463 91.1146 549.749 92.4419 550.337 93.2414C550.925 94.041 551.91 94.4408 553.292 94.4408C553.577 94.4408 553.895 94.4248 554.197 94.4088C554.515 94.3928 554.801 94.3608 555.071 94.3289C555.341 94.2969 555.595 94.2649 555.817 94.2489C556.04 94.2169 556.198 94.1849 556.294 94.137V81.2158H559.01V96.1039Z" fill="white"/>
<path d="M565.03 78.4813C564.538 78.4813 564.125 78.3214 563.791 78.0015C563.457 77.6817 563.283 77.2499 563.283 76.6902C563.283 76.1465 563.457 75.6987 563.791 75.3789C564.14 75.0591 564.553 74.8992 565.03 74.8992C565.522 74.8992 565.935 75.0591 566.269 75.3789C566.618 75.6987 566.777 76.1305 566.777 76.6902C566.777 77.2499 566.603 77.6817 566.269 78.0015C565.92 78.3214 565.507 78.4813 565.03 78.4813ZM566.396 96.5517H563.68V81.2478H566.396V96.5517Z" fill="white"/>
<path d="M575.625 96.8554C573.957 96.8074 572.766 96.4556 572.067 95.768C571.368 95.0804 571.019 94.0089 571.019 92.5537V74.1954L573.735 73.7317V92.1219C573.735 92.5697 573.767 92.9375 573.846 93.2413C573.925 93.5292 574.052 93.7691 574.227 93.945C574.402 94.1209 574.64 94.2488 574.926 94.3447C575.212 94.4247 575.577 94.5047 576.006 94.5686L575.625 96.8554Z" fill="white"/>
<path d="M588.873 74.1954L591.589 73.7317V96.1198C590.97 96.2957 590.16 96.4716 589.191 96.6475C588.222 96.8234 587.094 96.9194 585.823 96.9194C584.648 96.9194 583.599 96.7275 582.662 96.3597C581.725 95.9919 580.931 95.4642 580.264 94.7765C579.596 94.0889 579.088 93.2573 578.723 92.2659C578.357 91.2744 578.183 90.155 578.183 88.9236C578.183 87.7402 578.326 86.6688 578.627 85.6933C578.929 84.7179 579.374 83.8703 579.962 83.1667C580.549 82.463 581.264 81.9033 582.106 81.5196C582.948 81.1198 583.917 80.9279 585.013 80.9279C585.887 80.9279 586.665 81.0398 587.332 81.2797C587.999 81.5196 588.508 81.7434 588.841 81.9513V74.1954H588.873ZM588.873 84.494C588.539 84.2221 588.063 83.9503 587.443 83.6944C586.824 83.4385 586.141 83.3106 585.394 83.3106C584.616 83.3106 583.949 83.4545 583.393 83.7424C582.837 84.0302 582.392 84.414 582.027 84.9257C581.677 85.4215 581.423 86.0132 581.264 86.7008C581.105 87.3884 581.026 88.124 581.026 88.9076C581.026 90.6987 581.471 92.0739 582.344 93.0334C583.218 94.0089 584.393 94.4887 585.855 94.4887C586.601 94.4887 587.221 94.4567 587.713 94.3927C588.206 94.3288 588.587 94.2488 588.873 94.1688V84.494Z" fill="white"/>
<path d="M607.934 80.864C609.014 80.864 609.936 81.0079 610.698 81.2958C611.445 81.5836 612.048 81.9834 612.509 82.4951C612.97 83.0069 613.287 83.6305 613.478 84.3502C613.669 85.0698 613.764 85.8534 613.764 86.7169V96.2798C613.526 96.3278 613.208 96.3758 612.779 96.4397C612.366 96.5037 611.89 96.5677 611.365 96.6316C610.841 96.6956 610.269 96.7436 609.65 96.7916C609.03 96.8395 608.427 96.8715 607.823 96.8715C606.965 96.8715 606.171 96.7756 605.456 96.5997C604.742 96.4237 604.122 96.1359 603.582 95.7681C603.058 95.3843 602.645 94.8726 602.359 94.2489C602.073 93.6252 601.914 92.8736 601.914 91.9781C601.914 91.1306 602.089 90.4109 602.422 89.8033C602.772 89.1956 603.232 88.6999 603.82 88.3321C604.408 87.9642 605.091 87.6924 605.869 87.5005C606.648 87.3246 607.474 87.2286 608.316 87.2286C608.586 87.2286 608.871 87.2446 609.173 87.2766C609.459 87.3086 609.745 87.3406 610.015 87.3885C610.285 87.4365 610.508 87.4845 610.698 87.5165C610.889 87.5485 611.032 87.5804 611.111 87.5964V86.8288C611.111 86.3811 611.064 85.9333 610.968 85.4856C610.873 85.0378 610.698 84.654 610.444 84.3022C610.19 83.9664 609.84 83.6785 609.412 83.4866C608.983 83.2787 608.411 83.1828 607.696 83.1828C606.806 83.1828 606.012 83.2468 605.345 83.3747C604.678 83.5026 604.17 83.6305 603.836 83.7745L603.518 81.5037C603.868 81.3438 604.456 81.1998 605.282 81.0399C606.108 80.88 606.981 80.864 607.934 80.864ZM608.173 94.5847C608.808 94.5847 609.38 94.5687 609.888 94.5368C610.381 94.5048 610.794 94.4568 611.127 94.3768V89.8193C610.936 89.7233 610.619 89.6433 610.174 89.5634C609.745 89.4994 609.205 89.4674 608.586 89.4674C608.173 89.4674 607.744 89.4994 607.283 89.5474C606.822 89.6114 606.409 89.7233 606.028 89.9152C605.647 90.1071 605.329 90.363 605.075 90.6828C604.821 91.0026 604.694 91.4344 604.694 91.9621C604.694 92.9376 605.012 93.6252 605.631 94.009C606.251 94.3928 607.092 94.5847 608.173 94.5847Z" fill="white"/>
<path d="M630.665 96.7276C630.252 96.7276 629.807 96.7116 629.331 96.6956C628.854 96.6796 628.378 96.6476 627.901 96.5996C627.425 96.5676 626.948 96.5037 626.487 96.4557C626.027 96.3917 625.598 96.3278 625.201 96.2158V76.4503C625.598 76.3544 626.027 76.2744 626.487 76.2105C626.948 76.1465 627.425 76.0985 627.901 76.0665C628.378 76.0345 628.854 76.0026 629.315 75.9866C629.791 75.9706 630.22 75.9546 630.633 75.9546C631.809 75.9546 632.905 76.0505 633.921 76.2264C634.938 76.4024 635.827 76.7062 636.59 77.122C637.337 77.5377 637.924 78.0975 638.353 78.7851C638.782 79.4727 638.988 80.3203 638.988 81.3117C638.988 82.4312 638.718 83.3427 638.194 84.0623C637.67 84.7819 636.971 85.3096 636.082 85.6614C637.273 86.0133 638.21 86.573 638.925 87.3405C639.624 88.1081 639.973 89.1796 639.973 90.5708C639.973 92.6178 639.227 94.1369 637.734 95.1764C636.256 96.2158 633.905 96.7276 630.665 96.7276ZM628.012 84.7499H630.999C631.697 84.7499 632.365 84.7019 632.984 84.606C633.604 84.51 634.144 84.3341 634.604 84.0783C635.065 83.8224 635.43 83.4866 635.684 83.0708C635.955 82.655 636.082 82.1433 636.082 81.5196C636.082 80.9279 635.939 80.4322 635.669 80.0324C635.399 79.6326 635.017 79.3128 634.541 79.0569C634.064 78.8171 633.508 78.6252 632.857 78.5132C632.222 78.4013 631.539 78.3373 630.808 78.3373C630.077 78.3373 629.521 78.3533 629.108 78.3693C628.695 78.3853 628.33 78.4173 627.996 78.4653V84.7499H628.012ZM628.012 87.0527V94.2329C628.235 94.2489 628.489 94.2809 628.775 94.2969C629.029 94.3128 629.331 94.3288 629.664 94.3448C629.998 94.3608 630.395 94.3608 630.856 94.3608C631.697 94.3608 632.492 94.2969 633.238 94.2009C633.985 94.089 634.652 93.8971 635.208 93.6252C635.78 93.3534 636.225 92.9696 636.574 92.4738C636.908 91.9781 637.082 91.3704 637.082 90.6188C637.082 89.9472 636.955 89.3875 636.701 88.9237C636.447 88.4599 636.082 88.0921 635.605 87.8203C635.129 87.5484 634.557 87.3565 633.89 87.2286C633.222 87.1007 632.492 87.0527 631.666 87.0527H628.012Z" fill="white"/>
<path d="M642.976 88.9399C642.976 87.5806 643.166 86.3972 643.563 85.3897C643.96 84.3823 644.469 83.5347 645.104 82.8791C645.739 82.2074 646.486 81.7117 647.328 81.3759C648.17 81.04 649.028 80.8801 649.901 80.8801C651.95 80.8801 653.507 81.5198 654.603 82.8151C655.683 84.0944 656.239 86.0614 656.239 88.684C656.239 88.7959 656.239 88.9558 656.239 89.1477C656.239 89.3396 656.223 89.4996 656.207 89.6595H645.803C645.914 91.2426 646.375 92.458 647.169 93.2736C647.963 94.1051 649.218 94.5049 650.918 94.5049C651.871 94.5049 652.681 94.4249 653.332 94.249C653.984 94.0891 654.476 93.9132 654.81 93.7693L655.191 96.0721C654.857 96.248 654.285 96.4399 653.444 96.6318C652.618 96.8237 651.68 96.9196 650.632 96.9196C649.314 96.9196 648.17 96.7117 647.201 96.3119C646.232 95.9121 645.438 95.3525 644.818 94.6488C644.199 93.9452 643.738 93.0976 643.42 92.1382C643.119 91.1467 642.976 90.0912 642.976 88.9399ZM653.412 87.4366C653.428 86.2053 653.126 85.1818 652.49 84.3983C651.855 83.5987 650.981 83.1989 649.869 83.1989C649.25 83.1989 648.694 83.3268 648.217 83.5667C647.741 83.8066 647.344 84.1264 647.01 84.5262C646.677 84.926 646.423 85.3737 646.232 85.8855C646.041 86.3972 645.93 86.9249 645.867 87.4526L653.412 87.4366Z" fill="white"/>
<path d="M662.704 81.2479H668.455V83.5507H662.704V90.6029C662.704 91.3705 662.768 91.9942 662.879 92.5059C662.99 93.0017 663.165 93.4014 663.403 93.6893C663.642 93.9771 663.927 94.169 664.277 94.297C664.626 94.4089 665.039 94.4729 665.5 94.4729C666.326 94.4729 666.977 94.3769 667.47 94.185C667.962 93.9931 668.312 93.8652 668.502 93.7852L669.026 96.056C668.756 96.2 668.28 96.3599 667.597 96.5678C666.914 96.7757 666.135 96.8716 665.262 96.8716C664.229 96.8716 663.371 96.7437 662.704 96.4718C662.037 96.2 661.497 95.8162 661.084 95.2724C660.671 94.7447 660.385 94.0891 660.226 93.3215C660.052 92.5539 659.972 91.6424 659.972 90.6349V76.9782L662.688 76.5144V81.2479H662.704Z" fill="white"/>
<path d="M674.459 81.2479H680.209V83.5507H674.459V90.6029C674.459 91.3705 674.522 91.9942 674.633 92.5059C674.745 93.0017 674.919 93.4014 675.158 93.6893C675.396 93.9771 675.682 94.169 676.031 94.297C676.381 94.4089 676.794 94.4729 677.254 94.4729C678.08 94.4729 678.732 94.3769 679.224 94.185C679.717 93.9931 680.066 93.8652 680.257 93.7852L680.781 96.056C680.511 96.2 680.034 96.3599 679.351 96.5678C678.668 96.7757 677.89 96.8716 677.016 96.8716C675.984 96.8716 675.126 96.7437 674.459 96.4718C673.792 96.2 673.251 95.8162 672.838 95.2724C672.425 94.7287 672.14 94.0891 671.981 93.3215C671.806 92.5539 671.727 91.6424 671.727 90.6349V76.9782L674.443 76.5144V81.2479H674.459Z" fill="white"/>
<path d="M682.528 88.9399C682.528 87.5806 682.719 86.3972 683.116 85.3897C683.513 84.3823 684.022 83.5347 684.657 82.8791C685.292 82.2074 686.039 81.7117 686.881 81.3759C687.723 81.04 688.58 80.8801 689.454 80.8801C691.503 80.8801 693.06 81.5198 694.156 82.8151C695.236 84.0944 695.792 86.0614 695.792 88.684C695.792 88.7959 695.792 88.9558 695.792 89.1477C695.792 89.3396 695.776 89.4996 695.76 89.6595H685.356C685.467 91.2426 685.928 92.458 686.722 93.2736C687.516 94.1051 688.771 94.5049 690.471 94.5049C691.424 94.5049 692.234 94.4249 692.885 94.249C693.536 94.0891 694.029 93.9132 694.362 93.7693L694.744 96.0721C694.41 96.248 693.838 96.4399 692.996 96.6318C692.17 96.8237 691.233 96.9196 690.185 96.9196C688.866 96.9196 687.723 96.7117 686.754 96.3119C685.785 95.9121 684.99 95.3525 684.371 94.6488C683.751 93.9452 683.291 93.0976 682.973 92.1382C682.671 91.1467 682.528 90.0912 682.528 88.9399ZM692.949 87.4366C692.964 86.2053 692.663 85.1818 692.027 84.3983C691.392 83.5987 690.518 83.1989 689.406 83.1989C688.787 83.1989 688.231 83.3268 687.754 83.5667C687.278 83.8066 686.881 84.1264 686.547 84.5262C686.214 84.926 685.959 85.3737 685.769 85.8855C685.578 86.3972 685.467 86.9249 685.403 87.4526L692.949 87.4366Z" fill="white"/>
<path d="M705.323 80.928C705.561 80.928 705.831 80.944 706.133 80.976C706.434 81.0079 706.736 81.0399 707.022 81.0879C707.308 81.1359 707.578 81.1838 707.832 81.2318C708.071 81.2798 708.261 81.3278 708.372 81.3597L707.912 83.7425C707.689 83.6625 707.34 83.5666 706.847 83.4546C706.339 83.3427 705.704 83.2947 704.925 83.2947C704.417 83.2947 703.925 83.3587 703.416 83.4546C702.924 83.5666 702.59 83.6305 702.432 83.6785V96.5357H699.715V81.8875C700.351 81.6476 701.161 81.4237 702.114 81.2318C703.051 81.0239 704.131 80.928 705.323 80.928Z" fill="white"/>
<path d="M730.102 94.0891V96.5518H717.919V76.1626H720.746V94.0891H730.102Z" fill="white"/>
<path d="M734.248 78.4813C733.756 78.4813 733.343 78.3214 733.009 78.0015C732.676 77.6817 732.501 77.2499 732.501 76.6902C732.501 76.1305 732.676 75.6987 733.009 75.3789C733.359 75.0591 733.772 74.8992 734.248 74.8992C734.741 74.8992 735.154 75.0591 735.487 75.3789C735.837 75.6987 735.996 76.1305 735.996 76.6902C735.996 77.2339 735.821 77.6817 735.487 78.0015C735.154 78.3214 734.741 78.4813 734.248 78.4813ZM735.614 96.5517H732.898V81.2478H735.614V96.5517Z" fill="white"/>
<path d="M746.241 73.7158C747.036 73.7158 747.719 73.7798 748.306 73.8917C748.878 74.0037 749.275 74.1156 749.514 74.2116L749.005 76.5623C748.767 76.4504 748.449 76.3384 748.02 76.2265C747.592 76.1145 747.067 76.0666 746.448 76.0666C745.177 76.0666 744.303 76.4184 743.795 77.106C743.287 77.8096 743.033 78.7372 743.033 79.9205V81.2478H748.878V83.5506H743.033V96.5517H740.316V79.8726C740.316 77.9056 740.793 76.4024 741.746 75.331C742.683 74.2595 744.192 73.7158 746.241 73.7158Z" fill="white"/>
<path d="M750.737 88.9399C750.737 87.5806 750.927 86.3972 751.324 85.3897C751.722 84.3823 752.23 83.5347 752.865 82.8791C753.501 82.2074 754.247 81.7117 755.089 81.3759C755.931 81.04 756.789 80.8801 757.662 80.8801C759.712 80.8801 761.268 81.5198 762.364 82.8151C763.444 84.0944 764 86.0614 764 88.684C764 88.7959 764 88.9558 764 89.1477C764 89.3396 763.985 89.4996 763.969 89.6595H753.564C753.675 91.2426 754.136 92.458 754.93 93.2736C755.725 94.1051 756.979 94.5049 758.679 94.5049C759.632 94.5049 760.442 94.4249 761.094 94.249C761.745 94.0891 762.237 93.9132 762.571 93.7693L762.952 96.0721C762.618 96.248 762.047 96.4399 761.205 96.6318C760.379 96.8237 759.442 96.9196 758.393 96.9196C757.075 96.9196 755.931 96.7117 754.962 96.3119C753.993 95.9121 753.199 95.3525 752.579 94.6488C751.944 93.9452 751.499 93.0976 751.182 92.1382C750.88 91.1467 750.737 90.0912 750.737 88.9399ZM761.173 87.4366C761.189 86.2053 760.887 85.1818 760.252 84.3983C759.616 83.5987 758.743 83.1989 757.631 83.1989C757.011 83.1989 756.455 83.3268 755.979 83.5667C755.502 83.8066 755.105 84.1264 754.771 84.5262C754.438 84.926 754.184 85.3737 753.993 85.8855C753.803 86.3972 753.691 86.9249 753.628 87.4526H761.173V87.4366Z" fill="white"/>
</svg>
