<svg width="334" height="43" viewBox="0 0 334 43" fill="none" xmlns="http://www.w3.org/2000/svg">
<path d="M35.2632 6.92149C35.3951 1.15078 37.6798 0.025799 37.6798 0.025799C37.6798 0.025799 32.7215 -0.140864 31.6313 0.373014C26.5758 2.2202 25.7772 7.90063 25.7703 11.5603C25.7772 11.0186 25.7286 0.775783 14.708 0.0605205C14.3747 0.0396876 0 0.025799 0 0.025799C0 0.025799 2.30551 1.15078 2.42356 6.92149V24.3447C2.78466 20.4559 4.52768 15.831 8.72898 10.5186C12.3192 15.0602 14.1178 19.1018 14.7844 22.6087C17.3399 20.4837 20.8676 18.6782 25.7356 17.6088C25.7356 17.6088 26.2911 24.2614 23.5481 30.3863C26.6453 29.5877 30.3258 29.4349 34.659 30.3793C34.9854 29.2266 35.2007 28.0183 35.2701 26.7683L35.2632 6.92149Z" fill="#229E82"/>
<path d="M8.27758 38.3653C8.13869 34.8723 8.60396 27.7683 14.7844 22.6087C14.1108 19.1018 12.3192 15.0602 8.72896 10.5187C4.52766 15.8311 2.78464 20.456 2.42353 24.3448C2.42353 24.3448 1.368 32.6779 8.27758 38.3653Z" fill="#F78F35"/>
<path d="M25.7356 17.6088C20.8677 18.6851 17.34 20.4837 14.7845 22.6087C8.59709 27.7683 8.13183 34.8723 8.27766 38.3653C8.45126 38.5389 10.8679 40.1152 10.8679 40.1152C12.7706 37.025 16.7428 32.1432 23.5482 30.3863C26.2981 24.2614 25.7356 17.6088 25.7356 17.6088Z" fill="#FCB53E"/>
<path d="M23.548 30.3863C16.7426 32.1432 12.7635 37.025 10.8677 40.1153C10.8746 40.1153 10.8885 40.1222 10.8955 40.1291C14.9162 42.3652 19.1244 42.0735 19.1244 42.0735C26.4993 42.0666 32.7144 37.1292 34.6588 30.3793C30.3256 29.428 26.6451 29.5877 23.548 30.3863Z" fill="#FFCA43"/>
<path d="M105.803 13.0741V12.6436H102.109V13.0741C102.803 13.2616 103.025 13.6505 103.025 14.1019C103.025 14.6921 102.782 15.3032 102.512 16.0115L100.303 21.817L96.8242 13.4838C96.602 12.9908 96.0881 12.6436 95.4909 12.6436H92.2549V13.0672C93.2896 13.1852 93.7757 13.8935 94.359 15.3241L99.0325 26.5738H99.5464L104.039 15.3241C104.539 14.0671 104.991 13.2963 105.803 13.0741Z" fill="#F78F35"/>
<path d="M118.143 25.2613C117.907 24.9072 117.4 23.7336 117.4 23.7336L112.866 12.6436H110.963L106.546 23.9142C106.067 25.1363 105.623 25.9072 104.866 26.1502V26.5738H108.067V26.1502C107.435 26.0113 107.296 25.7544 107.296 25.3655C107.296 24.8725 107.512 24.4072 107.706 23.9142L108.56 21.8309H113.497L115.102 25.7266C115.338 26.2405 115.859 26.546 116.456 26.5808H119.567V26.1572C118.956 26.0947 118.518 25.8308 118.143 25.2613ZM109.011 20.5878L110.935 15.5949L112.991 20.5878H109.011Z" fill="#F78F35"/>
<path d="M89.6783 24.2405C89.6783 22.4281 89.6853 14.1505 89.6783 14.1227C89.6297 13.2963 88.9145 12.6436 88.0464 12.6436H88.0395H85.1854V13.0672C86.2201 13.2616 86.4076 13.9491 86.4076 15.2963V24.1711C86.3729 25.3377 86.1229 25.9627 85.1646 26.1433V26.5669H90.9283V26.1433C89.977 25.9697 89.727 25.3655 89.6783 24.2405Z" fill="#F78F35"/>
<path d="M55.6168 13.0672C56.6446 13.2616 56.839 13.9491 56.839 15.2963V23.0739C55.6168 24.4072 54.2766 25.06 52.9155 25.06C51.0405 25.06 50.353 24.0114 50.353 21.7475V19.2267C50.353 16.6643 50.353 14.1366 50.353 14.1227C50.3044 13.2963 49.5892 12.6436 48.7211 12.6436H48.7142H45.9712V13.0672C47.0059 13.2616 47.1934 13.9491 47.1934 15.2963V20.8587V21.9281C47.1934 25.053 48.6795 26.5738 51.7488 26.5738C53.7002 26.5738 55.3529 25.9211 56.846 24.5391V25.1433C56.8946 25.9419 57.5821 26.5738 58.4223 26.5738H61.1861V26.1502C60.2417 25.9697 60.0265 25.3725 60.0056 24.1919V15.2963C60.0056 13.9421 60.1931 13.2616 61.2209 13.0672V12.6436H55.6168V13.0672Z" fill="#F78F35"/>
<path d="M134.567 23.9211V18.3587V17.2893C134.567 14.1644 133.08 12.6436 130.011 12.6436C128.06 12.6436 126.407 13.2963 124.914 14.6782V14.0741C124.865 13.2755 124.178 12.6436 123.338 12.6436H120.574V13.0672C121.518 13.2477 121.733 13.8449 121.754 15.0254V23.9211C121.754 25.2752 121.567 25.9558 120.539 26.1502V26.5738H126.143V26.1502C125.115 25.9558 124.921 25.2683 124.921 23.9211V16.1435C126.143 14.8102 127.483 14.1574 128.844 14.1574C130.719 14.1574 131.407 15.206 131.407 17.4698V19.9906C131.407 22.5531 131.407 25.0808 131.407 25.0947C131.456 25.9211 132.171 26.5738 133.039 26.5738H133.046H135.789V26.1502C134.754 25.9558 134.567 25.2683 134.567 23.9211Z" fill="#F78F35"/>
<path d="M75.6303 12.6436H74.4289V13.0741H75.6442C76.658 13.2755 76.8455 13.956 76.8455 15.3032V27.2266C76.8178 27.796 76.6094 28.3238 76.2761 28.7543C76.2761 28.7613 76.2692 28.7613 76.2692 28.7682C76.2275 28.8168 76.1858 28.8724 76.1442 28.921L76.1372 28.9279C75.9567 29.1224 75.7553 29.296 75.5261 29.4418C75.5122 29.4488 75.5053 29.4557 75.4914 29.4626C75.4775 29.4696 75.4567 29.4835 75.4428 29.4904C75.1095 29.6779 74.7275 29.796 74.3109 29.8238C74.1373 29.8307 73.9984 29.8376 73.8525 29.8238V30.2404C74.165 30.2682 74.4984 30.2821 74.8872 30.2682C75.6372 30.2474 76.2067 30.1501 76.7344 29.9696C76.7691 29.9557 76.8108 29.9488 76.8455 29.9349C78.6649 29.289 79.9566 27.6363 80.0121 25.6849V15.3032C80.0121 13.956 80.2066 13.2755 81.2135 13.0741H82.4287V12.6436H81.2343H75.6303Z" fill="#F78F35"/>
<path d="M65.4081 12.6436H64.2067V13.0741H65.422C66.4359 13.2755 66.6234 13.956 66.6234 15.3032V27.2266C66.5956 27.796 66.3873 28.3238 66.0539 28.7543C66.0539 28.7613 66.047 28.7613 66.047 28.7682C66.0053 28.8168 65.9637 28.8724 65.922 28.921L65.915 28.9279C65.7345 29.1224 65.5331 29.296 65.3039 29.4418C65.2901 29.4488 65.2831 29.4557 65.2692 29.4626C65.2553 29.4696 65.2345 29.4835 65.2206 29.4904C64.8873 29.6779 64.5054 29.796 64.0887 29.8238C63.9151 29.8307 63.7762 29.8376 63.6304 29.8238V30.2404C63.9429 30.2682 64.2762 30.2821 64.6651 30.2682C65.4151 30.2474 65.9845 30.1501 66.5123 29.9696C66.547 29.9557 66.5886 29.9488 66.6234 29.9349C68.4428 29.289 69.7344 27.6363 69.79 25.6849V15.3032C69.79 13.956 69.9844 13.2755 70.9913 13.0741H72.2066V12.6436H71.0122H65.4081Z" fill="#F78F35"/>
<path d="M144.455 25.1919C146.49 25.1919 147.504 24.4975 147.504 23.1017C147.504 22.6711 147.413 22.31 147.233 22.0045C147.052 21.7059 146.809 21.442 146.497 21.2198C146.191 20.9975 145.837 20.81 145.441 20.6503C145.045 20.4906 144.629 20.3309 144.184 20.1712C143.677 19.9976 143.191 19.8031 142.74 19.5809C142.282 19.3587 141.893 19.1017 141.552 18.7962C141.219 18.4976 140.955 18.1365 140.761 17.7198C140.566 17.3032 140.469 16.8032 140.469 16.2129C140.469 14.9977 140.886 14.0463 141.712 13.3588C142.539 12.6783 143.684 12.3311 145.143 12.3311C145.983 12.3311 146.754 12.4213 147.441 12.6019C148.129 12.7824 148.636 12.9769 148.955 13.1921L148.337 14.7754C148.059 14.6018 147.636 14.4282 147.08 14.2616C146.525 14.0949 145.879 14.0116 145.143 14.0116C144.768 14.0116 144.42 14.0532 144.101 14.1296C143.782 14.213 143.497 14.331 143.261 14.4907C143.018 14.6505 142.83 14.8588 142.691 15.1018C142.552 15.3518 142.483 15.6435 142.483 15.9768C142.483 16.3518 142.559 16.6643 142.705 16.9212C142.851 17.1782 143.059 17.4004 143.33 17.5948C143.601 17.7893 143.907 17.9629 144.261 18.1295C144.615 18.2893 145.004 18.449 145.434 18.6087C146.038 18.8518 146.587 19.0879 147.094 19.3309C147.594 19.574 148.031 19.8587 148.4 20.192C148.768 20.5253 149.052 20.9212 149.254 21.3864C149.455 21.8447 149.552 22.4072 149.552 23.06C149.552 24.2753 149.108 25.2127 148.219 25.8724C147.33 26.5321 146.073 26.8585 144.455 26.8585C143.907 26.8585 143.4 26.8238 142.941 26.7474C142.483 26.671 142.066 26.5877 141.705 26.4905C141.344 26.3933 141.032 26.2822 140.775 26.171C140.511 26.0599 140.309 25.9627 140.164 25.8794L140.747 24.2753C141.052 24.4489 141.525 24.6433 142.15 24.8586C142.775 25.0808 143.545 25.1919 144.455 25.1919Z" fill="#229E82"/>
<path d="M157.344 24.6433C157.212 24.3239 157.031 23.9142 156.809 23.4211C156.587 22.9281 156.351 22.3934 156.094 21.817C155.837 21.2406 155.566 20.6503 155.281 20.0392C154.99 19.4282 154.719 18.8587 154.469 18.3101C154.212 17.7685 153.976 17.2824 153.754 16.8518C153.531 16.4213 153.358 16.0949 153.219 15.8657C153.073 17.4421 152.955 19.1573 152.858 20.9976C152.767 22.8378 152.684 24.6919 152.622 26.5669H150.712C150.767 25.3655 150.823 24.1503 150.892 22.9211C150.962 21.6989 151.038 20.4906 151.122 19.3101C151.205 18.1226 151.302 16.9699 151.399 15.8449C151.497 14.7199 151.608 13.6574 151.726 12.6505H153.434C153.795 13.2408 154.184 13.9352 154.601 14.7407C155.017 15.5463 155.434 16.3865 155.844 17.2615C156.26 18.1365 156.663 19.0115 157.052 19.8934C157.441 20.7684 157.795 21.567 158.115 22.2892C158.434 21.567 158.788 20.7684 159.177 19.8934C159.566 19.0184 159.969 18.1435 160.378 17.2615C160.795 16.3865 161.205 15.5463 161.621 14.7407C162.038 13.9352 162.427 13.2408 162.788 12.6505H164.496C164.955 17.1365 165.295 21.7684 165.524 26.5599H163.614C163.545 24.685 163.462 22.8309 163.371 20.9906C163.274 19.1504 163.156 17.4421 163.01 15.8657C162.878 16.0949 162.698 16.4213 162.476 16.8518C162.253 17.2824 162.017 17.7685 161.767 18.3101C161.51 18.8518 161.239 19.4282 160.955 20.0392C160.67 20.6503 160.399 21.2406 160.142 21.817C159.885 22.3934 159.649 22.9281 159.434 23.4211C159.212 23.9142 159.038 24.3239 158.899 24.6433H157.344Z" fill="#229E82"/>
<path d="M177.072 26.5599C176.843 25.9558 176.628 25.3655 176.427 24.7822C176.225 24.1989 176.017 23.6086 175.802 23.0045H169.496L168.232 26.5599H166.205C166.739 25.0878 167.239 23.7267 167.705 22.4767C168.17 21.2267 168.628 20.0392 169.08 18.9143C169.524 17.7893 169.968 16.7129 170.413 15.6921C170.857 14.6713 171.316 13.6574 171.795 12.6505H173.579C174.059 13.6505 174.524 14.6644 174.968 15.6921C175.413 16.7129 175.857 17.7893 176.302 18.9143C176.753 20.0392 177.211 21.2267 177.677 22.4767C178.149 23.7267 178.649 25.0878 179.183 26.5599H177.072ZM175.246 21.4003C174.816 20.2337 174.392 19.1087 173.968 18.0185C173.545 16.9282 173.107 15.8796 172.649 14.8796C172.184 15.8866 171.739 16.9282 171.316 18.0185C170.892 19.1087 170.475 20.2337 170.066 21.4003H175.246Z" fill="#229E82"/>
<path d="M188.656 24.8655V26.553L180.288 26.5599L180.281 12.6505H182.225L182.232 24.8725L188.656 24.8655Z" fill="#229E82"/>
<path d="M198.266 24.8586V26.546L189.899 26.553L189.892 12.6436H191.836L191.843 24.8655L198.266 24.8586Z" fill="#229E82"/>
<path d="M203.35 26.546L203.343 12.6366L211.731 12.6296V14.2963H205.287V18.4906H211.009V20.1364H205.287V26.5391L203.35 26.546Z" fill="#229E82"/>
<path d="M213.315 12.6296H215.259L215.266 26.5391H213.322L213.315 12.6296Z" fill="#229E82"/>
<path d="M227.454 26.5322C227.162 26.0392 226.822 25.4836 226.44 24.8656C226.058 24.2476 225.648 23.6087 225.204 22.949C224.759 22.2893 224.301 21.6157 223.829 20.9351C223.356 20.2546 222.884 19.5949 222.412 18.956C221.94 18.3241 221.488 17.7199 221.044 17.1574C220.6 16.5949 220.197 16.1019 219.822 15.6714L219.829 26.5322H217.919L217.912 12.6228H219.461C220.093 13.2895 220.759 14.0742 221.481 14.963C222.197 15.8519 222.905 16.7686 223.613 17.713C224.315 18.6574 224.981 19.581 225.599 20.4907C226.224 21.4004 226.745 22.2129 227.176 22.9212L227.169 12.6228H229.079L229.085 26.5322H227.454Z" fill="#229E82"/>
<path d="M241.023 26.5253C240.793 25.9211 240.578 25.3309 240.377 24.7475C240.175 24.1642 239.967 23.5739 239.752 22.9698H233.446L232.183 26.5253H230.155C230.689 25.0531 231.189 23.692 231.655 22.442C232.12 21.1921 232.578 20.0046 233.03 18.8796C233.474 17.7546 233.919 16.6783 234.363 15.6574C234.807 14.6366 235.266 13.6228 235.745 12.6158H237.53C238.009 13.6158 238.474 14.6297 238.918 15.6574C239.363 16.6783 239.807 17.7546 240.252 18.8796C240.703 20.0046 241.161 21.1921 241.627 22.442C242.099 23.692 242.599 25.0531 243.134 26.5253H241.023ZM239.196 21.3657C238.766 20.199 238.342 19.074 237.919 17.9838C237.495 16.8935 237.057 15.8449 236.599 14.845C236.134 15.8519 235.689 16.8935 235.266 17.9838C234.842 19.074 234.426 20.199 234.016 21.3657H239.196Z" fill="#229E82"/>
<path d="M253.766 26.5183C253.474 26.0253 253.134 25.4697 252.752 24.8517C252.37 24.2336 251.96 23.5948 251.516 22.9351C251.071 22.2754 250.613 21.6018 250.141 20.9212C249.668 20.2407 249.196 19.581 248.724 18.9421C248.252 18.3102 247.8 17.706 247.356 17.1435C246.912 16.581 246.509 16.088 246.134 15.6574L246.141 26.5183H244.231L244.224 12.6089H245.773C246.405 13.2755 247.071 14.0602 247.794 14.9491C248.509 15.838 249.217 16.7546 249.925 17.6991C250.627 18.6435 251.293 19.5671 251.911 20.4768C252.536 21.3865 253.057 22.199 253.488 22.9073L253.481 12.6089H255.391L255.398 26.5183H253.766Z" fill="#229E82"/>
<path d="M264.022 26.8169C263.043 26.8169 262.154 26.6572 261.355 26.3377C260.55 26.0183 259.862 25.5461 259.286 24.935C258.71 24.3169 258.265 23.56 257.953 22.6573C257.64 21.7545 257.48 20.7198 257.48 19.5532C257.48 18.3865 257.654 17.3518 258.008 16.4491C258.362 15.5463 258.842 14.7894 259.446 14.1713C260.05 13.5533 260.751 13.088 261.55 12.7686C262.355 12.4491 263.21 12.2894 264.119 12.2825C264.696 12.2825 265.216 12.3241 265.675 12.4005C266.133 12.4839 266.536 12.5741 266.876 12.6783C267.216 12.7825 267.494 12.8936 267.709 12.9977C267.925 13.1019 268.071 13.1852 268.154 13.2408L267.591 14.8449C267.473 14.7616 267.3 14.6783 267.071 14.581C266.841 14.4908 266.584 14.3935 266.3 14.3033C266.015 14.213 265.696 14.1297 265.355 14.0741C265.015 14.0116 264.668 13.9838 264.321 13.9838C263.585 13.9838 262.925 14.1088 262.335 14.3658C261.744 14.6227 261.244 14.9907 260.828 15.4699C260.411 15.9491 260.098 16.5393 259.876 17.2268C259.654 17.9143 259.543 18.6921 259.543 19.5462C259.543 20.3795 259.64 21.1295 259.835 21.817C260.029 22.4975 260.321 23.0878 260.71 23.5739C261.098 24.06 261.585 24.4419 262.168 24.7058C262.751 24.9767 263.432 25.1086 264.203 25.1086C265.098 25.1086 265.841 25.0114 266.432 24.8239C267.022 24.6364 267.459 24.4697 267.758 24.3239L268.258 25.928C268.168 25.9975 267.994 26.0808 267.758 26.178C267.515 26.2752 267.216 26.3725 266.855 26.4697C266.494 26.56 266.071 26.6433 265.591 26.7127C265.105 26.7822 264.584 26.8169 264.022 26.8169Z" fill="#229E82"/>
<path d="M269.682 26.5113L269.675 12.6019L278.168 12.595V14.2616H271.626V18.3935H277.445V20.0184H271.626V24.8378L278.675 24.8308V26.4975L269.682 26.5113Z" fill="#229E82"/>
<path d="M287.931 26.6224C287.653 26.6224 287.348 26.6155 287.015 26.6016C286.688 26.5877 286.362 26.5669 286.029 26.5391C285.702 26.5113 285.376 26.4766 285.056 26.4419C284.737 26.4002 284.438 26.3516 284.174 26.2821L284.167 12.7963C284.438 12.7269 284.73 12.6783 285.049 12.6366C285.369 12.5949 285.695 12.5602 286.022 12.5324C286.348 12.5047 286.674 12.4838 286.994 12.4699C287.313 12.456 287.619 12.4491 287.897 12.4491C288.702 12.4491 289.452 12.5116 290.153 12.6296C290.855 12.7477 291.466 12.956 291.98 13.2407C292.494 13.5255 292.903 13.9074 293.195 14.3727C293.487 14.8379 293.639 15.4143 293.639 16.1018C293.639 16.8657 293.459 17.4907 293.098 17.9768C292.737 18.4629 292.258 18.8309 291.653 19.074C292.473 19.317 293.119 19.692 293.598 20.2198C294.077 20.7406 294.32 21.4767 294.32 22.4281C294.32 23.8169 293.806 24.8655 292.785 25.5669C291.771 26.2683 290.153 26.6224 287.931 26.6224ZM286.098 18.4559H288.147C288.626 18.4559 289.084 18.4212 289.515 18.3518C289.945 18.2823 290.313 18.1643 290.626 17.9906C290.938 17.817 291.188 17.5879 291.369 17.3101C291.549 17.0323 291.64 16.6712 291.64 16.2476C291.64 15.8449 291.542 15.5115 291.355 15.2338C291.167 14.9629 290.91 14.7407 290.584 14.5741C290.258 14.4074 289.869 14.2824 289.431 14.206C288.987 14.1227 288.522 14.088 288.029 14.088C287.535 14.088 287.147 14.0949 286.862 14.1088C286.584 14.1227 286.327 14.1435 286.098 14.1713V18.4559ZM286.098 20.0184V24.9141C286.244 24.928 286.417 24.9419 286.619 24.9558C286.792 24.9697 286.994 24.9766 287.23 24.9836C287.466 24.9905 287.737 24.9905 288.042 24.9905C288.619 24.9905 289.16 24.9558 289.681 24.8794C290.195 24.803 290.647 24.678 291.035 24.4905C291.424 24.303 291.737 24.0391 291.966 23.7058C292.202 23.3725 292.32 22.9489 292.313 22.4419C292.313 21.9906 292.223 21.6017 292.049 21.2892C291.876 20.9767 291.626 20.7267 291.299 20.5392C290.973 20.3517 290.577 20.2198 290.126 20.1364C289.667 20.0531 289.16 20.0184 288.598 20.0184H286.098Z" fill="#229E82"/>
<path d="M305.577 26.4905C305.348 25.8863 305.132 25.2961 304.931 24.7127C304.73 24.1294 304.521 23.5392 304.306 22.935H298.001L296.737 26.4905H294.709C295.244 25.0183 295.744 23.6572 296.209 22.4072C296.674 21.1573 297.133 19.9698 297.584 18.8448C298.028 17.7198 298.473 16.6435 298.917 15.6227C299.362 14.6018 299.82 13.588 300.299 12.5811H302.084C302.563 13.581 303.028 14.5949 303.473 15.6227C303.917 16.6435 304.362 17.7198 304.806 18.8448C305.257 19.9698 305.716 21.1573 306.181 22.4072C306.653 23.6572 307.153 25.0183 307.688 26.4905H305.577ZM303.744 21.3378C303.313 20.1712 302.889 19.0462 302.466 17.9559C302.042 16.8657 301.605 15.8171 301.146 14.8171C300.681 15.824 300.237 16.8657 299.813 17.9559C299.389 19.0462 298.973 20.1712 298.563 21.3378H303.744Z" fill="#229E82"/>
<path d="M318.32 26.4835C318.028 25.9905 317.688 25.4349 317.306 24.8169C316.924 24.1989 316.514 23.56 316.07 22.9003C315.625 22.2406 315.167 21.567 314.695 20.8864C314.223 20.2059 313.75 19.5462 313.278 18.9073C312.806 18.2754 312.355 17.6712 311.91 17.1087C311.466 16.5462 311.063 16.0532 310.688 15.6226L310.695 26.4835H308.785L308.778 12.5741H310.327C310.959 13.2407 311.625 14.0255 312.348 14.9143C313.063 15.8032 313.771 16.7198 314.48 17.6643C315.181 18.6087 315.848 19.5323 316.466 20.442C317.091 21.3517 317.611 22.1642 318.042 22.8725L318.035 12.5741H319.945L319.952 26.4835H318.32Z" fill="#229E82"/>
<path d="M332.882 12.5671C332.465 13.0255 332 13.5255 331.479 14.081C330.958 14.6365 330.41 15.206 329.847 15.7893C329.278 16.3726 328.715 16.942 328.153 17.5045C327.59 18.067 327.063 18.5878 326.57 19.0739C327.146 19.4767 327.757 19.9698 328.396 20.56C329.042 21.1503 329.667 21.7753 330.285 22.4489C330.903 23.1155 331.479 23.803 332.021 24.4974C332.562 25.1919 333.014 25.8585 333.375 26.4835H331.083C330.681 25.8516 330.222 25.2197 329.694 24.5877C329.174 23.9558 328.618 23.3447 328.035 22.7614C327.451 22.178 326.861 21.6433 326.271 21.1433C325.674 20.6503 325.097 20.2267 324.535 19.8795V26.4835H322.59L322.583 12.5741H324.528V18.7128C324.993 18.2684 325.514 17.7754 326.07 17.2198C326.632 16.6643 327.188 16.1087 327.736 15.5462C328.285 14.9838 328.806 14.4421 329.292 13.9282C329.778 13.4143 330.194 12.963 330.528 12.5741L332.882 12.5671Z" fill="#229E82"/>
<path d="M233.342 42.004C233.162 42.004 232.967 41.9971 232.759 41.9902C232.551 41.9832 232.342 41.9693 232.134 41.9485C231.926 41.9346 231.717 41.9068 231.516 41.886C231.315 41.8582 231.127 41.8304 230.954 41.7818V33.1987C231.127 33.157 231.315 33.1223 231.516 33.0945C231.717 33.0667 231.926 33.0459 232.134 33.032C232.342 33.0181 232.551 33.0042 232.752 32.9973C232.961 32.9903 233.148 32.9834 233.329 32.9834C233.842 32.9834 234.322 33.0251 234.766 33.1015C235.21 33.1778 235.599 33.3098 235.933 33.4903C236.259 33.6709 236.516 33.9139 236.703 34.2125C236.891 34.5111 236.981 34.8792 236.981 35.3097C236.981 35.7958 236.863 36.1917 236.634 36.5042C236.405 36.8167 236.099 37.0458 235.71 37.1986C236.231 37.3514 236.641 37.5944 236.953 37.9277C237.259 38.2611 237.412 38.7263 237.412 39.3305C237.412 40.2194 237.085 40.8791 236.433 41.3304C235.787 41.7818 234.752 42.004 233.342 42.004ZM232.176 36.8028H233.481C233.787 36.8028 234.079 36.7819 234.349 36.7403C234.62 36.6986 234.856 36.6222 235.058 36.5111C235.259 36.4 235.419 36.2542 235.53 36.0736C235.648 35.8931 235.704 35.6708 235.704 35.4C235.704 35.1431 235.641 34.9278 235.523 34.7542C235.405 34.5806 235.238 34.4417 235.03 34.3306C234.822 34.2264 234.579 34.1431 234.294 34.0945C234.016 34.0459 233.717 34.0181 233.398 34.0181C233.079 34.0181 232.836 34.025 232.655 34.032C232.474 34.0389 232.315 34.0528 232.169 34.0737V36.8028H232.176ZM232.176 37.8027V40.9207C232.273 40.9277 232.384 40.9416 232.509 40.9485C232.62 40.9555 232.752 40.9624 232.898 40.9693C233.044 40.9763 233.217 40.9763 233.419 40.9763C233.787 40.9763 234.134 40.9485 234.46 40.9068C234.787 40.8582 235.079 40.7749 235.322 40.6568C235.572 40.5388 235.766 40.3721 235.919 40.1569C236.065 39.9416 236.141 39.6777 236.141 39.3513C236.141 39.0597 236.085 38.8166 235.974 38.6152C235.863 38.4138 235.704 38.2541 235.495 38.1361C235.287 38.018 235.037 37.9347 234.745 37.8791C234.454 37.8305 234.134 37.8027 233.773 37.8027H232.176Z" fill="#808285"/>
<path d="M244.384 41.7332C244.113 41.8027 243.752 41.8721 243.301 41.9485C242.856 42.0249 242.335 42.0665 241.752 42.0665C241.238 42.0665 240.808 41.9901 240.46 41.8443C240.113 41.6985 239.828 41.4832 239.62 41.2124C239.405 40.9416 239.252 40.6152 239.162 40.2471C239.072 39.8791 239.023 39.4624 239.023 39.011V35.282H240.21V38.7541C240.21 39.5666 240.335 40.143 240.592 40.4902C240.849 40.8374 241.28 41.011 241.884 41.011C242.009 41.011 242.148 41.0041 242.28 40.9971C242.419 40.9902 242.544 40.9763 242.662 40.9624C242.78 40.9485 242.891 40.9346 242.988 40.9277C243.085 40.9138 243.155 40.8999 243.196 40.8791V35.2681H244.384V41.7332Z" fill="#808285"/>
<path d="M247.016 34.0807C246.801 34.0807 246.62 34.0112 246.474 33.8723C246.328 33.7335 246.252 33.546 246.252 33.3029C246.252 33.0668 246.328 32.8724 246.474 32.7335C246.627 32.5946 246.807 32.5251 247.016 32.5251C247.231 32.5251 247.412 32.5946 247.557 32.7335C247.71 32.8724 247.78 33.0599 247.78 33.3029C247.78 33.546 247.703 33.7335 247.557 33.8723C247.405 34.0112 247.224 34.0807 247.016 34.0807ZM247.613 41.9277H246.426V35.282H247.613V41.9277Z" fill="#808285"/>
<path d="M251.648 42.0596C250.918 42.0388 250.398 41.886 250.092 41.5874C249.787 41.2888 249.634 40.8236 249.634 40.1916V32.2196L250.821 32.0182V40.0041C250.821 40.1986 250.835 40.3583 250.87 40.4902C250.905 40.6152 250.96 40.7194 251.037 40.7958C251.113 40.8722 251.217 40.9277 251.342 40.9694C251.467 41.0041 251.627 41.0388 251.814 41.0666L251.648 42.0596Z" fill="#808285"/>
<path d="M257.439 32.2196L258.627 32.0182V41.7402C258.356 41.8166 258.002 41.893 257.578 41.9694C257.154 42.0458 256.661 42.0874 256.106 42.0874C255.592 42.0874 255.134 42.0041 254.724 41.8444C254.314 41.6847 253.967 41.4555 253.675 41.1569C253.384 40.8583 253.161 40.4972 253.002 40.0666C252.842 39.6361 252.766 39.15 252.766 38.6153C252.766 38.1014 252.828 37.6361 252.96 37.2125C253.092 36.7889 253.286 36.4209 253.543 36.1153C253.8 35.8098 254.113 35.5667 254.481 35.4001C254.849 35.2265 255.273 35.1431 255.752 35.1431C256.134 35.1431 256.474 35.1917 256.766 35.2959C257.057 35.4001 257.279 35.4973 257.425 35.5876V32.2196H257.439ZM257.439 36.6917C257.293 36.5737 257.085 36.4556 256.814 36.3445C256.543 36.2334 256.245 36.1778 255.918 36.1778C255.578 36.1778 255.286 36.2403 255.043 36.3653C254.8 36.4903 254.606 36.657 254.446 36.8792C254.293 37.0945 254.182 37.3514 254.113 37.65C254.043 37.9486 254.009 38.2681 254.009 38.6083C254.009 39.3861 254.203 39.9833 254.585 40.4C254.967 40.8236 255.481 41.0319 256.12 41.0319C256.446 41.0319 256.717 41.018 256.932 40.9902C257.147 40.9624 257.314 40.9277 257.439 40.893V36.6917Z" fill="#808285"/>
<path d="M265.773 35.1154C266.245 35.1154 266.648 35.1779 266.981 35.3029C267.307 35.4278 267.571 35.6015 267.772 35.8237C267.974 36.0459 268.113 36.3167 268.196 36.6292C268.279 36.9417 268.321 37.282 268.321 37.657V41.8097C268.217 41.8305 268.078 41.8513 267.891 41.8791C267.71 41.9069 267.502 41.9347 267.272 41.9624C267.043 41.9902 266.793 42.011 266.522 42.0319C266.252 42.0527 265.988 42.0666 265.724 42.0666C265.349 42.0666 265.002 42.0249 264.689 41.9485C264.377 41.8722 264.106 41.7472 263.87 41.5874C263.641 41.4208 263.46 41.1986 263.335 40.9277C263.21 40.6569 263.141 40.3305 263.141 39.9416C263.141 39.5736 263.217 39.2611 263.363 38.9972C263.516 38.7333 263.717 38.5181 263.974 38.3583C264.231 38.1986 264.529 38.0806 264.87 37.9972C265.21 37.9209 265.571 37.8792 265.939 37.8792C266.057 37.8792 266.182 37.8861 266.314 37.9C266.439 37.9139 266.564 37.9278 266.682 37.9486C266.8 37.9695 266.897 37.9903 266.981 38.0042C267.064 38.0181 267.127 38.032 267.161 38.0389V37.7056C267.161 37.5111 267.141 37.3167 267.099 37.1223C267.057 36.9278 266.981 36.7612 266.87 36.6084C266.759 36.4626 266.606 36.3376 266.418 36.2542C266.231 36.1639 265.981 36.1223 265.668 36.1223C265.279 36.1223 264.932 36.1501 264.641 36.2056C264.349 36.2612 264.127 36.3167 263.981 36.3792L263.842 35.3931C263.995 35.3237 264.252 35.2612 264.613 35.1917C264.974 35.1223 265.356 35.1154 265.773 35.1154ZM265.877 41.0736C266.154 41.0736 266.404 41.0666 266.627 41.0527C266.842 41.0388 267.022 41.018 267.168 40.9833V39.0042C267.085 38.9625 266.946 38.9278 266.752 38.8931C266.564 38.8653 266.328 38.8514 266.057 38.8514C265.877 38.8514 265.689 38.8653 265.488 38.8861C265.286 38.9139 265.106 38.9625 264.939 39.0458C264.773 39.1292 264.634 39.2403 264.523 39.3792C264.411 39.518 264.356 39.7055 264.356 39.9347C264.356 40.3583 264.495 40.6569 264.766 40.8236C265.036 40.9902 265.404 41.0736 265.877 41.0736Z" fill="#808285"/>
<path d="M275.71 42.004C275.529 42.004 275.335 41.9971 275.126 41.9902C274.918 41.9832 274.71 41.9693 274.501 41.9485C274.293 41.9346 274.085 41.9068 273.883 41.886C273.682 41.8582 273.494 41.8304 273.321 41.7818V33.1987C273.494 33.157 273.682 33.1223 273.883 33.0945C274.085 33.0667 274.293 33.0459 274.501 33.032C274.71 33.0181 274.918 33.0042 275.119 32.9973C275.328 32.9903 275.515 32.9834 275.696 32.9834C276.21 32.9834 276.689 33.0251 277.133 33.1015C277.578 33.1778 277.967 33.3098 278.3 33.4903C278.626 33.6709 278.883 33.9139 279.071 34.2125C279.258 34.5111 279.348 34.8792 279.348 35.3097C279.348 35.7958 279.23 36.1917 279.001 36.5042C278.772 36.8167 278.467 37.0458 278.078 37.1986C278.598 37.3514 279.008 37.5944 279.321 37.9277C279.626 38.2611 279.779 38.7263 279.779 39.3305C279.779 40.2194 279.453 40.8791 278.8 41.3304C278.154 41.7818 277.126 42.004 275.71 42.004ZM274.55 36.8028H275.855C276.161 36.8028 276.453 36.7819 276.724 36.7403C276.994 36.6986 277.23 36.6222 277.432 36.5111C277.633 36.4 277.793 36.2542 277.904 36.0736C278.022 35.8931 278.078 35.6708 278.078 35.4C278.078 35.1431 278.015 34.9278 277.897 34.7542C277.779 34.5806 277.612 34.4417 277.404 34.3306C277.196 34.2264 276.953 34.1431 276.668 34.0945C276.39 34.0459 276.092 34.0181 275.772 34.0181C275.453 34.0181 275.21 34.025 275.029 34.032C274.849 34.0389 274.689 34.0528 274.543 34.0737V36.8028H274.55ZM274.55 37.8027V40.9207C274.647 40.9277 274.758 40.9416 274.883 40.9485C274.994 40.9555 275.126 40.9624 275.272 40.9693C275.418 40.9763 275.592 40.9763 275.793 40.9763C276.161 40.9763 276.508 40.9485 276.835 40.9068C277.161 40.8582 277.453 40.7749 277.696 40.6568C277.946 40.5388 278.14 40.3721 278.293 40.1569C278.439 39.9416 278.515 39.6777 278.515 39.3513C278.515 39.0597 278.46 38.8166 278.348 38.6152C278.237 38.4138 278.078 38.2541 277.869 38.1361C277.661 38.018 277.411 37.9347 277.119 37.8791C276.828 37.8236 276.508 37.8027 276.147 37.8027H274.55Z" fill="#808285"/>
<path d="M281.091 38.6222C281.091 38.032 281.175 37.5181 281.348 37.0806C281.522 36.6431 281.744 36.2751 282.022 35.9904C282.3 35.6987 282.626 35.4834 282.994 35.3376C283.362 35.1918 283.737 35.1223 284.119 35.1223C285.015 35.1223 285.695 35.4001 286.175 35.9626C286.647 36.5181 286.89 37.3723 286.89 38.5111C286.89 38.5597 286.89 38.6292 286.89 38.7125C286.89 38.7958 286.883 38.8653 286.876 38.9347H282.327C282.376 39.6222 282.577 40.15 282.925 40.5041C283.272 40.8653 283.82 41.0389 284.563 41.0389C284.98 41.0389 285.334 41.0041 285.619 40.9278C285.904 40.8583 286.119 40.7819 286.265 40.7194L286.431 41.7194C286.286 41.7958 286.036 41.8791 285.668 41.9624C285.307 42.0458 284.897 42.0874 284.438 42.0874C283.862 42.0874 283.362 41.9972 282.938 41.8236C282.515 41.65 282.168 41.4069 281.897 41.1014C281.626 40.7958 281.425 40.4278 281.286 40.0111C281.154 39.5806 281.091 39.1222 281.091 38.6222ZM285.654 37.9695C285.661 37.4348 285.529 36.9903 285.251 36.6501C284.973 36.3028 284.591 36.1292 284.105 36.1292C283.834 36.1292 283.591 36.1848 283.383 36.289C283.175 36.3931 283.001 36.532 282.855 36.7056C282.709 36.8792 282.598 37.0737 282.515 37.2959C282.432 37.5181 282.383 37.7473 282.355 37.9764L285.654 37.9695Z" fill="#808285"/>
<path d="M289.716 35.282H292.23V36.2819H289.716V39.3444C289.716 39.6777 289.744 39.9485 289.793 40.1707C289.841 40.386 289.918 40.5596 290.022 40.6846C290.126 40.8096 290.251 40.8929 290.404 40.9485C290.557 40.9971 290.737 41.0249 290.939 41.0249C291.3 41.0249 291.584 40.9832 291.8 40.8999C292.015 40.8166 292.168 40.761 292.251 40.7263L292.48 41.7124C292.362 41.7749 292.154 41.8443 291.855 41.9346C291.557 42.0249 291.216 42.0665 290.834 42.0665C290.383 42.0665 290.008 42.011 289.716 41.8929C289.425 41.7749 289.189 41.6082 289.008 41.3721C288.828 41.1429 288.703 40.8582 288.633 40.5249C288.557 40.1916 288.522 39.7957 288.522 39.3583V33.4278L289.709 33.2264V35.282H289.716Z" fill="#808285"/>
<path d="M294.855 35.282H297.369V36.2819H294.855V39.3444C294.855 39.6777 294.883 39.9485 294.931 40.1707C294.98 40.386 295.056 40.5596 295.161 40.6846C295.265 40.8096 295.39 40.8929 295.543 40.9485C295.695 40.9971 295.876 41.0249 296.077 41.0249C296.438 41.0249 296.723 40.9832 296.938 40.8999C297.154 40.8166 297.306 40.761 297.39 40.7263L297.619 41.7124C297.501 41.7749 297.293 41.8443 296.994 41.9346C296.695 42.0249 296.355 42.0665 295.973 42.0665C295.522 42.0665 295.147 42.011 294.855 41.8929C294.563 41.7749 294.327 41.6082 294.147 41.3721C293.966 41.136 293.841 40.8582 293.772 40.5249C293.695 40.1916 293.661 39.7957 293.661 39.3583V33.4278L294.848 33.2264V35.282H294.855Z" fill="#808285"/>
<path d="M298.383 38.6222C298.383 38.032 298.466 37.5181 298.64 37.0806C298.813 36.6431 299.036 36.2751 299.313 35.9904C299.591 35.6987 299.918 35.4834 300.286 35.3376C300.654 35.1918 301.029 35.1223 301.411 35.1223C302.306 35.1223 302.987 35.4001 303.466 35.9626C303.938 36.5181 304.181 37.3723 304.181 38.5111C304.181 38.5597 304.181 38.6292 304.181 38.7125C304.181 38.7958 304.174 38.8653 304.167 38.9347H299.619C299.668 39.6222 299.869 40.15 300.216 40.5041C300.563 40.8653 301.112 41.0389 301.855 41.0389C302.272 41.0389 302.626 41.0041 302.911 40.9278C303.195 40.8583 303.41 40.7819 303.556 40.7194L303.723 41.7194C303.577 41.7958 303.327 41.8791 302.959 41.9624C302.598 42.0458 302.188 42.0874 301.73 42.0874C301.154 42.0874 300.654 41.9972 300.23 41.8236C299.806 41.65 299.459 41.4069 299.188 41.1014C298.918 40.7958 298.716 40.4278 298.577 40.0111C298.445 39.5806 298.383 39.1222 298.383 38.6222ZM302.938 37.9695C302.945 37.4348 302.813 36.9903 302.536 36.6501C302.258 36.3028 301.876 36.1292 301.39 36.1292C301.119 36.1292 300.876 36.1848 300.668 36.289C300.459 36.3931 300.286 36.532 300.14 36.7056C299.994 36.8792 299.883 37.0737 299.799 37.2959C299.716 37.5181 299.668 37.7473 299.64 37.9764L302.938 37.9695Z" fill="#808285"/>
<path d="M308.348 35.1431C308.452 35.1431 308.57 35.15 308.702 35.1639C308.834 35.1778 308.966 35.1917 309.091 35.2125C309.216 35.2333 309.334 35.2542 309.445 35.275C309.549 35.2958 309.633 35.3167 309.681 35.3306L309.48 36.3653C309.383 36.3305 309.23 36.2889 309.014 36.2403C308.792 36.1917 308.514 36.1708 308.174 36.1708C307.952 36.1708 307.737 36.1986 307.514 36.2403C307.299 36.2889 307.153 36.3167 307.084 36.3375V41.9207H305.896V35.5597C306.174 35.4556 306.528 35.3583 306.945 35.275C307.355 35.1847 307.827 35.1431 308.348 35.1431Z" fill="#808285"/>
<path d="M319.181 40.8583V41.9277H313.854V33.0737H315.091V40.8583H319.181Z" fill="#808285"/>
<path d="M320.993 34.0807C320.778 34.0807 320.598 34.0112 320.452 33.8723C320.306 33.7335 320.229 33.546 320.229 33.3029C320.229 33.0599 320.306 32.8724 320.452 32.7335C320.604 32.5946 320.785 32.5251 320.993 32.5251C321.209 32.5251 321.389 32.5946 321.535 32.7335C321.688 32.8724 321.757 33.0599 321.757 33.3029C321.757 33.539 321.681 33.7335 321.535 33.8723C321.389 34.0112 321.209 34.0807 320.993 34.0807ZM321.591 41.9277H320.403V35.282H321.591V41.9277Z" fill="#808285"/>
<path d="M326.236 32.0112C326.583 32.0112 326.882 32.039 327.139 32.0876C327.389 32.1362 327.563 32.1848 327.667 32.2265L327.445 33.2473C327.34 33.1987 327.201 33.1501 327.014 33.1015C326.826 33.0529 326.597 33.032 326.327 33.032C325.771 33.032 325.389 33.1848 325.167 33.4834C324.945 33.789 324.833 34.1917 324.833 34.7056V35.282H327.389V36.282H324.833V41.9277H323.646V34.6848C323.646 33.8306 323.854 33.1779 324.271 32.7126C324.681 32.2473 325.34 32.0112 326.236 32.0112Z" fill="#808285"/>
<path d="M328.202 38.6222C328.202 38.032 328.285 37.5181 328.459 37.0806C328.632 36.6431 328.854 36.2751 329.132 35.9904C329.41 35.6987 329.736 35.4834 330.104 35.3376C330.472 35.1918 330.847 35.1223 331.229 35.1223C332.125 35.1223 332.806 35.4001 333.285 35.9626C333.757 36.5181 334 37.3723 334 38.5111C334 38.5597 334 38.6292 334 38.7125C334 38.7958 333.993 38.8653 333.986 38.9347H329.438C329.486 39.6222 329.688 40.15 330.035 40.5041C330.382 40.8653 330.931 41.0389 331.674 41.0389C332.09 41.0389 332.445 41.0041 332.729 40.9278C333.014 40.8583 333.229 40.7819 333.375 40.7194L333.542 41.7194C333.396 41.7958 333.146 41.8791 332.778 41.9624C332.417 42.0458 332.007 42.0874 331.549 42.0874C330.972 42.0874 330.472 41.9972 330.049 41.8236C329.625 41.65 329.278 41.4069 329.007 41.1014C328.729 40.7958 328.535 40.4278 328.396 40.0111C328.264 39.5806 328.202 39.1222 328.202 38.6222ZM332.764 37.9695C332.771 37.4348 332.639 36.9903 332.361 36.6501C332.084 36.3028 331.702 36.1292 331.215 36.1292C330.945 36.1292 330.702 36.1848 330.493 36.289C330.285 36.3931 330.111 36.532 329.966 36.7056C329.82 36.8792 329.709 37.0737 329.625 37.2959C329.542 37.5181 329.493 37.7473 329.466 37.9764H332.764V37.9695Z" fill="#808285"/>
</svg>
